<svg xmlns="http://www.w3.org/2000/svg" xmlns:xlink="http://www.w3.org/1999/xlink" width="1280" height="821" viewBox="0 0 1280 821">
  <defs>
    <clipPath id="clip-path">
      <rect id="Rectangle_3068" data-name="Rectangle 3068" width="1280" height="821" fill="none"/>
    </clipPath>
    <radialGradient id="radial-gradient" cx="0.5" cy="0.5" r="0.5" gradientUnits="objectBoundingBox">
      <stop offset="0" stop-color="#e6e6e6" stop-opacity="0.89"/>
      <stop offset="0.547" stop-color="#eaeaea" stop-opacity="0.463"/>
      <stop offset="1" stop-color="#fff" stop-opacity="0"/>
    </radialGradient>
  </defs>
  <g id="Masked-BG-00-Pattern-Circles" clip-path="url(#clip-path)">
    <g id="BG-00-Pattern-Circles" transform="translate(304.835 -672.436)">
      <path id="BG-00-Gradation" d="M635,0c350.7,0,635,284.3,635,635s-284.3,635-635,635S0,985.7,0,635,284.3,0,635,0Z" transform="translate(-297.834 152.437)" fill="url(#radial-gradient)"/>
      <g id="Flower2" transform="translate(-171.697 221.517)" opacity="0.997">
        <g id="Ellipse_653" data-name="Ellipse 653" transform="translate(163.797 282.077)" fill="none" stroke="#fff" stroke-miterlimit="10" stroke-width="0.5">
          <ellipse cx="187.881" cy="187.881" rx="187.881" ry="187.881" stroke="none"/>
          <ellipse cx="187.881" cy="187.881" rx="188.131" ry="188.131" fill="none"/>
        </g>
        <g id="Ellipse_654" data-name="Ellipse 654" transform="translate(326.661 188.182)" fill="none" stroke="#fff" stroke-miterlimit="10" stroke-width="0.5">
          <ellipse cx="187.881" cy="187.881" rx="187.881" ry="187.881" stroke="none"/>
          <ellipse cx="187.881" cy="187.881" rx="188.131" ry="188.131" fill="none"/>
        </g>
        <g id="Ellipse_655" data-name="Ellipse 655" transform="translate(326.661 375.868)" fill="none" stroke="#fff" stroke-miterlimit="10" stroke-width="0.5">
          <ellipse cx="188.149" cy="188.149" rx="188.149" ry="188.149" stroke="none"/>
          <ellipse cx="188.149" cy="188.149" rx="188.399" ry="188.399" fill="none"/>
        </g>
        <g id="Ellipse_656" data-name="Ellipse 656" transform="translate(163.675 469.193)" fill="none" stroke="#fff" stroke-miterlimit="10" stroke-width="0.5">
          <ellipse cx="187.881" cy="187.881" rx="187.881" ry="187.881" stroke="none"/>
          <ellipse cx="187.881" cy="187.881" rx="188.131" ry="188.131" fill="none"/>
        </g>
        <g id="Ellipse_657" data-name="Ellipse 657" transform="translate(489.285 281.97)" fill="none" stroke="#fff" stroke-miterlimit="10" stroke-width="0.5">
          <ellipse cx="187.881" cy="187.881" rx="187.881" ry="187.881" stroke="none"/>
          <ellipse cx="187.881" cy="187.881" rx="188.131" ry="188.131" fill="none"/>
        </g>
        <g id="Ellipse_658" data-name="Ellipse 658" transform="translate(653.079 188.256)" fill="none" stroke="#fff" stroke-miterlimit="10" stroke-width="0.5">
          <ellipse cx="187.881" cy="187.881" rx="187.881" ry="187.881" stroke="none"/>
          <ellipse cx="187.881" cy="187.881" rx="188.131" ry="188.131" fill="none"/>
        </g>
        <g id="Ellipse_659" data-name="Ellipse 659" transform="translate(327.61 0)" fill="none" stroke="#fff" stroke-miterlimit="10" stroke-width="0.5">
          <ellipse cx="187.881" cy="187.881" rx="187.881" ry="187.881" stroke="none"/>
          <ellipse cx="187.881" cy="187.881" rx="188.131" ry="188.131" fill="none"/>
        </g>
        <g id="Ellipse_660" data-name="Ellipse 660" transform="translate(0.929 186.76)" fill="none" stroke="#fff" stroke-miterlimit="10" stroke-width="0.5">
          <ellipse cx="187.881" cy="187.881" rx="187.881" ry="187.881" stroke="none"/>
          <ellipse cx="187.881" cy="187.881" rx="188.131" ry="188.131" fill="none"/>
        </g>
        <g id="Ellipse_661" data-name="Ellipse 661" transform="translate(0 562.522)" fill="none" stroke="#fff" stroke-miterlimit="10" stroke-width="0.5">
          <ellipse cx="187.881" cy="187.881" rx="187.881" ry="187.881" stroke="none"/>
          <ellipse cx="187.881" cy="187.881" rx="188.131" ry="188.131" fill="none"/>
        </g>
        <g id="Ellipse_662" data-name="Ellipse 662" transform="translate(325.01 752.166)" fill="none" stroke="#fff" stroke-miterlimit="10" stroke-width="0.5">
          <ellipse cx="187.881" cy="187.881" rx="187.881" ry="187.881" stroke="none"/>
          <ellipse cx="187.881" cy="187.881" rx="188.131" ry="188.131" fill="none"/>
        </g>
        <g id="Ellipse_663" data-name="Ellipse 663" transform="translate(652.149 565.531)" fill="none" stroke="#fff" stroke-miterlimit="10" stroke-width="0.5">
          <ellipse cx="187.881" cy="187.881" rx="187.881" ry="187.881" stroke="none"/>
          <ellipse cx="187.881" cy="187.881" rx="188.131" ry="188.131" fill="none"/>
        </g>
        <g id="Ellipse_664" data-name="Ellipse 664" transform="translate(652.149 375.762)" fill="none" stroke="#fff" stroke-miterlimit="10" stroke-width="0.5">
          <ellipse cx="187.881" cy="187.881" rx="187.881" ry="187.881" stroke="none"/>
          <ellipse cx="187.881" cy="187.881" rx="188.131" ry="188.131" fill="none"/>
        </g>
        <g id="Ellipse_665" data-name="Ellipse 665" transform="translate(489.285 93.431)" fill="none" stroke="#fff" stroke-miterlimit="10" stroke-width="0.5">
          <ellipse cx="187.881" cy="187.881" rx="187.881" ry="187.881" stroke="none"/>
          <ellipse cx="187.881" cy="187.881" rx="188.131" ry="188.131" fill="none"/>
        </g>
        <g id="Ellipse_666" data-name="Ellipse 666" transform="translate(164.511 93.431)" fill="none" stroke="#fff" stroke-miterlimit="10" stroke-width="0.5">
          <ellipse cx="187.881" cy="187.881" rx="187.881" ry="187.881" stroke="none"/>
          <ellipse cx="187.881" cy="187.881" rx="188.131" ry="188.131" fill="none"/>
        </g>
        <g id="Ellipse_667" data-name="Ellipse 667" transform="translate(0 376.405)" fill="none" stroke="#fff" stroke-miterlimit="10" stroke-width="0.5">
          <ellipse cx="187.881" cy="187.881" rx="187.881" ry="187.881" stroke="none"/>
          <ellipse cx="187.881" cy="187.881" rx="188.131" ry="188.131" fill="none"/>
        </g>
        <g id="Ellipse_668" data-name="Ellipse 668" transform="translate(164.363 657.839)" fill="none" stroke="#fff" stroke-miterlimit="10" stroke-width="0.5">
          <ellipse cx="187.881" cy="187.881" rx="187.881" ry="187.881" stroke="none"/>
          <ellipse cx="187.881" cy="187.881" rx="188.131" ry="188.131" fill="none"/>
        </g>
        <g id="Ellipse_669" data-name="Ellipse 669" transform="translate(488.842 657.839)" fill="none" stroke="#fff" stroke-miterlimit="10" stroke-width="0.5">
          <ellipse cx="187.881" cy="187.881" rx="187.881" ry="187.881" stroke="none"/>
          <ellipse cx="187.881" cy="187.881" rx="188.131" ry="188.131" fill="none"/>
        </g>
        <g id="Ellipse_670" data-name="Ellipse 670" transform="translate(489.973 469.656)" fill="none" stroke="#fff" stroke-miterlimit="10" stroke-width="0.5">
          <ellipse cx="187.881" cy="187.881" rx="187.881" ry="187.881" stroke="none"/>
          <ellipse cx="187.881" cy="187.881" rx="188.131" ry="188.131" fill="none"/>
        </g>
        <g id="Ellipse_671" data-name="Ellipse 671" transform="translate(326.18 563.944)" fill="none" stroke="#fff" stroke-miterlimit="10" stroke-width="0.5">
          <ellipse cx="187.881" cy="187.881" rx="187.881" ry="187.881" stroke="none"/>
          <ellipse cx="187.881" cy="187.881" rx="188.131" ry="188.131" fill="none"/>
        </g>
      </g>
      <g id="Group_10943" data-name="Group 10943" transform="translate(-156.989 213.39)">
        <ellipse id="Ellipse_672" data-name="Ellipse 672" cx="9.758" cy="9.758" rx="9.758" ry="9.758" transform="translate(328.285 280.631)" fill="#fff"/>
        <ellipse id="Ellipse_706" data-name="Ellipse 706" cx="9.758" cy="9.758" rx="9.758" ry="9.758" transform="translate(325.497 844.325)" fill="#fff"/>
        <ellipse id="Ellipse_710" data-name="Ellipse 710" cx="9.758" cy="9.758" rx="9.758" ry="9.758" transform="translate(325.497 1034.995)" fill="#fff"/>
        <ellipse id="Ellipse_704" data-name="Ellipse 704" cx="9.758" cy="9.758" rx="9.758" ry="9.758" transform="translate(494.185 940.771)" fill="#fff"/>
        <ellipse id="Ellipse_709" data-name="Ellipse 709" cx="9.758" cy="9.758" rx="9.758" ry="9.758" transform="translate(493.26 1128.079)" fill="#fff"/>
        <ellipse id="Ellipse_677" data-name="Ellipse 677" cx="9.758" cy="9.758" rx="9.758" ry="9.758" transform="translate(490.472 186.396)" fill="#fff"/>
        <ellipse id="Ellipse_680" data-name="Ellipse 680" cx="9.758" cy="9.758" rx="9.758" ry="9.758" transform="translate(329.214 92.733)" fill="#fff"/>
        <ellipse id="Ellipse_683" data-name="Ellipse 683" cx="9.758" cy="9.758" rx="9.758" ry="9.758" transform="translate(493.26 0)" fill="#fff"/>
        <ellipse id="Ellipse_673" data-name="Ellipse 673" cx="9.758" cy="9.758" rx="9.758" ry="9.758" transform="translate(652.66 281.26)" fill="#fff"/>
        <ellipse id="Ellipse_705" data-name="Ellipse 705" cx="9.758" cy="9.758" rx="9.758" ry="9.758" transform="translate(652.66 844.325)" fill="#fff"/>
        <ellipse id="Ellipse_711" data-name="Ellipse 711" cx="9.758" cy="9.758" rx="9.758" ry="9.758" transform="translate(652.66 1034.996)" fill="#fff"/>
        <ellipse id="Ellipse_684" data-name="Ellipse 684" cx="9.758" cy="9.758" rx="9.758" ry="9.758" transform="translate(815.777 374.923)" fill="#fff"/>
        <ellipse id="Ellipse_689" data-name="Ellipse 689" cx="9.758" cy="9.758" rx="9.758" ry="9.758" transform="translate(817.635 563.45)" fill="#fff"/>
        <ellipse id="Ellipse_696" data-name="Ellipse 696" cx="9.758" cy="9.758" rx="9.758" ry="9.758" transform="translate(815.763 751.964)" fill="#fff"/>
        <ellipse id="Ellipse_703" data-name="Ellipse 703" cx="9.758" cy="9.758" rx="9.758" ry="9.758" transform="translate(815.763 940.771)" fill="#fff"/>
        <ellipse id="Ellipse_678" data-name="Ellipse 678" cx="9.758" cy="9.758" rx="9.758" ry="9.758" transform="translate(815.777 186.396)" fill="#fff"/>
        <ellipse id="Ellipse_681" data-name="Ellipse 681" cx="9.758" cy="9.758" rx="9.758" ry="9.758" transform="translate(655.448 92.733)" fill="#fff"/>
        <ellipse id="Ellipse_674" data-name="Ellipse 674" cx="9.758" cy="9.758" rx="9.758" ry="9.758" transform="translate(978.893 280.489)" fill="#fff"/>
        <ellipse id="Ellipse_688" data-name="Ellipse 688" cx="9.758" cy="9.758" rx="9.758" ry="9.758" transform="translate(979.551 468.858)" fill="#fff"/>
        <ellipse id="Ellipse_695" data-name="Ellipse 695" cx="9.758" cy="9.758" rx="9.758" ry="9.758" transform="translate(977.661 657.38)" fill="#fff"/>
        <ellipse id="Ellipse_702" data-name="Ellipse 702" cx="9.758" cy="9.755" rx="9.758" ry="9.755" transform="translate(977.661 849.44)" fill="#fff"/>
        <ellipse id="Ellipse_675" data-name="Ellipse 675" cx="9.758" cy="9.758" rx="9.758" ry="9.758" transform="translate(0.192 280.631)" fill="#fff"/>
        <ellipse id="Ellipse_694" data-name="Ellipse 694" cx="9.758" cy="9.758" rx="9.758" ry="9.758" transform="translate(0 468.083)" fill="#fff"/>
        <ellipse id="Ellipse_701" data-name="Ellipse 701" cx="9.758" cy="9.758" rx="9.758" ry="9.758" transform="translate(0.482 655.535)" fill="#fff"/>
        <ellipse id="Ellipse_708" data-name="Ellipse 708" cx="9.758" cy="9.758" rx="9.758" ry="9.758" transform="translate(4.191 849.901)" fill="#fff"/>
        <ellipse id="Ellipse_687" data-name="Ellipse 687" cx="9.758" cy="9.758" rx="9.758" ry="9.758" transform="translate(164.511 374.923)" fill="#fff"/>
        <ellipse id="Ellipse_693" data-name="Ellipse 693" cx="9.758" cy="9.758" rx="9.758" ry="9.758" transform="translate(164.511 560.662)" fill="#fff"/>
        <ellipse id="Ellipse_700" data-name="Ellipse 700" cx="9.758" cy="9.758" rx="9.758" ry="9.758" transform="translate(164.511 750.114)" fill="#fff"/>
        <ellipse id="Ellipse_707" data-name="Ellipse 707" cx="9.758" cy="9.758" rx="9.758" ry="9.758" transform="translate(164.511 937.058)" fill="#fff"/>
        <ellipse id="Ellipse_676" data-name="Ellipse 676" cx="9.758" cy="9.758" rx="9.758" ry="9.758" transform="translate(164.511 186.396)" fill="#fff"/>
      </g>
      <g id="Flower3" transform="translate(171.115 596.931)" opacity="0.5">
        <g id="Ellipse_653-2" data-name="Ellipse 653" transform="translate(54.484 94.271)" fill="none" stroke="#fff" stroke-miterlimit="10" stroke-width="0.5">
          <ellipse cx="62.851" cy="62.851" rx="62.851" ry="62.851" stroke="none"/>
          <ellipse cx="62.851" cy="62.851" rx="63.101" ry="63.101" fill="none"/>
        </g>
        <g id="Ellipse_654-2" data-name="Ellipse 654" transform="translate(108.966 62.861)" fill="none" stroke="#fff" stroke-miterlimit="10" stroke-width="0.5">
          <ellipse cx="62.851" cy="62.851" rx="62.851" ry="62.851" stroke="none"/>
          <ellipse cx="62.851" cy="62.851" rx="63.101" ry="63.101" fill="none"/>
        </g>
        <g id="Ellipse_655-2" data-name="Ellipse 655" transform="translate(108.886 125.647)" fill="none" stroke="#fff" stroke-miterlimit="10" stroke-width="0.5">
          <ellipse cx="62.851" cy="62.851" rx="62.851" ry="62.851" stroke="none"/>
          <ellipse cx="62.851" cy="62.851" rx="63.101" ry="63.101" fill="none"/>
        </g>
        <g id="Ellipse_656-2" data-name="Ellipse 656" transform="translate(54.443 156.867)" fill="none" stroke="#fff" stroke-miterlimit="10" stroke-width="0.5">
          <ellipse cx="62.851" cy="62.851" rx="62.851" ry="62.851" stroke="none"/>
          <ellipse cx="62.851" cy="62.851" rx="63.101" ry="63.101" fill="none"/>
        </g>
        <g id="Ellipse_657-2" data-name="Ellipse 657" transform="translate(163.368 94.236)" fill="none" stroke="#fff" stroke-miterlimit="10" stroke-width="0.5">
          <ellipse cx="62.851" cy="62.851" rx="62.851" ry="62.851" stroke="none"/>
          <ellipse cx="62.851" cy="62.851" rx="63.101" ry="63.101" fill="none"/>
        </g>
        <g id="Ellipse_658-2" data-name="Ellipse 658" transform="translate(218.02 62.861)" fill="none" stroke="#fff" stroke-miterlimit="10" stroke-width="0.5">
          <ellipse cx="62.851" cy="62.851" rx="62.851" ry="62.851" stroke="none"/>
          <ellipse cx="62.851" cy="62.851" rx="63.101" ry="63.101" fill="none"/>
        </g>
        <g id="Ellipse_659-2" data-name="Ellipse 659" transform="translate(109.283 0)" fill="none" stroke="#fff" stroke-miterlimit="10" stroke-width="0.5">
          <ellipse cx="62.851" cy="62.851" rx="62.851" ry="62.851" stroke="none"/>
          <ellipse cx="62.851" cy="62.851" rx="63.101" ry="63.101" fill="none"/>
        </g>
        <g id="Ellipse_660-2" data-name="Ellipse 660" transform="translate(0 62.375)" fill="none" stroke="#fff" stroke-miterlimit="10" stroke-width="0.5">
          <ellipse cx="62.851" cy="62.851" rx="62.851" ry="62.851" stroke="none"/>
          <ellipse cx="62.851" cy="62.851" rx="63.101" ry="63.101" fill="none"/>
        </g>
        <g id="Ellipse_661-2" data-name="Ellipse 661" transform="translate(0 188.088)" fill="none" stroke="#fff" stroke-miterlimit="10" stroke-width="0.5">
          <ellipse cx="62.851" cy="62.851" rx="62.851" ry="62.851" stroke="none"/>
          <ellipse cx="62.851" cy="62.851" rx="63.101" ry="63.101" fill="none"/>
        </g>
        <g id="Ellipse_662-2" data-name="Ellipse 662" transform="translate(108.725 251.218)" fill="none" stroke="#fff" stroke-miterlimit="10" stroke-width="0.5">
          <ellipse cx="62.851" cy="62.851" rx="62.851" ry="62.851" stroke="none"/>
          <ellipse cx="62.851" cy="62.851" rx="63.101" ry="63.101" fill="none"/>
        </g>
        <g id="Ellipse_663-2" data-name="Ellipse 663" transform="translate(218.02 188.564)" fill="none" stroke="#fff" stroke-miterlimit="10" stroke-width="0.5">
          <ellipse cx="62.851" cy="62.851" rx="62.851" ry="62.851" stroke="none"/>
          <ellipse cx="62.851" cy="62.851" rx="63.101" ry="63.101" fill="none"/>
        </g>
        <g id="Ellipse_664-2" data-name="Ellipse 664" transform="translate(218.02 125.612)" fill="none" stroke="#fff" stroke-miterlimit="10" stroke-width="0.5">
          <ellipse cx="62.851" cy="62.851" rx="62.851" ry="62.851" stroke="none"/>
          <ellipse cx="62.851" cy="62.851" rx="63.101" ry="63.101" fill="none"/>
        </g>
        <g id="Ellipse_665-2" data-name="Ellipse 665" transform="translate(163.699 31.451)" fill="none" stroke="#fff" stroke-miterlimit="10" stroke-width="0.5">
          <ellipse cx="62.851" cy="62.851" rx="62.851" ry="62.851" stroke="none"/>
          <ellipse cx="62.851" cy="62.851" rx="63.101" ry="63.101" fill="none"/>
        </g>
        <g id="Ellipse_666-2" data-name="Ellipse 666" transform="translate(54.722 31.22)" fill="none" stroke="#fff" stroke-miterlimit="10" stroke-width="0.5">
          <ellipse cx="62.851" cy="62.851" rx="62.851" ry="62.851" stroke="none"/>
          <ellipse cx="62.851" cy="62.851" rx="63.101" ry="63.101" fill="none"/>
        </g>
        <g id="Ellipse_667-2" data-name="Ellipse 667" transform="translate(0 125.227)" fill="none" stroke="#fff" stroke-miterlimit="10" stroke-width="0.5">
          <ellipse cx="62.851" cy="62.851" rx="62.851" ry="62.851" stroke="none"/>
          <ellipse cx="62.851" cy="62.851" rx="63.101" ry="63.101" fill="none"/>
        </g>
        <g id="Ellipse_668-2" data-name="Ellipse 668" transform="translate(54.362 219.653)" fill="none" stroke="#fff" stroke-miterlimit="10" stroke-width="0.5">
          <ellipse cx="62.851" cy="62.851" rx="62.851" ry="62.851" stroke="none"/>
          <ellipse cx="62.851" cy="62.851" rx="63.101" ry="63.101" fill="none"/>
        </g>
        <g id="Ellipse_669-2" data-name="Ellipse 669" transform="translate(163.22 219.884)" fill="none" stroke="#fff" stroke-miterlimit="10" stroke-width="0.5">
          <ellipse cx="62.851" cy="62.851" rx="62.851" ry="62.851" stroke="none"/>
          <ellipse cx="62.851" cy="62.851" rx="63.101" ry="63.101" fill="none"/>
        </g>
        <g id="Ellipse_670-2" data-name="Ellipse 670" transform="translate(163.288 157.022)" fill="none" stroke="#fff" stroke-miterlimit="10" stroke-width="0.5">
          <ellipse cx="62.851" cy="62.851" rx="62.851" ry="62.851" stroke="none"/>
          <ellipse cx="62.851" cy="62.851" rx="63.101" ry="63.101" fill="none"/>
        </g>
        <g id="Ellipse_671-2" data-name="Ellipse 671" transform="translate(108.805 188.433)" fill="none" stroke="#fff" stroke-miterlimit="10" stroke-width="0.5">
          <ellipse cx="62.851" cy="62.851" rx="62.851" ry="62.851" stroke="none"/>
          <ellipse cx="62.851" cy="62.851" rx="63.101" ry="63.101" fill="none"/>
        </g>
      </g>
      <g id="Dots3" transform="translate(173.729 592.193)">
        <ellipse id="Ellipse_672-2" data-name="Ellipse 672" cx="5.146" cy="5.146" rx="5.146" ry="5.146" transform="translate(109.907 93.416)" fill="#fff"/>
        <ellipse id="Ellipse_692" data-name="Ellipse 692" cx="5.146" cy="5.146" rx="5.146" ry="5.146" transform="translate(109.907 156.192)" fill="#fff"/>
        <ellipse id="Ellipse_699" data-name="Ellipse 699" cx="5.146" cy="5.146" rx="5.146" ry="5.146" transform="translate(109.907 220.131)" fill="#fff"/>
        <ellipse id="Ellipse_706-2" data-name="Ellipse 706" cx="5.146" cy="5.146" rx="5.146" ry="5.146" transform="translate(109.907 283.936)" fill="#fff"/>
        <ellipse id="Ellipse_710-2" data-name="Ellipse 710" cx="5.146" cy="5.146" rx="5.146" ry="5.146" transform="translate(109.907 347.741)" fill="#fff"/>
        <circle id="Ellipse_686" data-name="Ellipse 686" cx="5.146" cy="5.146" r="5.146" transform="translate(163.828 125.452)" fill="#fff"/>
        <ellipse id="Seed0" cx="5.146" cy="5.146" rx="5.146" ry="5.146" transform="translate(163.828 188.228)" fill="#fff"/>
        <ellipse id="Ellipse_697" data-name="Ellipse 697" cx="5.146" cy="5.146" rx="5.146" ry="5.146" transform="translate(163.828 251.004)" fill="#fff"/>
        <ellipse id="Ellipse_704-2" data-name="Ellipse 704" cx="5.146" cy="5.146" rx="5.146" ry="5.146" transform="translate(163.828 314.81)" fill="#fff"/>
        <ellipse id="Ellipse_709-2" data-name="Ellipse 709" cx="5.146" cy="5.146" rx="5.146" ry="5.146" transform="translate(163.828 375.627)" fill="#fff"/>
        <ellipse id="Ellipse_677-2" data-name="Ellipse 677" cx="5.146" cy="5.146" rx="5.146" ry="5.146" transform="translate(163.828 62.676)" fill="#fff"/>
        <ellipse id="Ellipse_680-2" data-name="Ellipse 680" cx="5.146" cy="5.146" rx="5.146" ry="5.146" transform="translate(109.907 29.944)" fill="#fff"/>
        <ellipse id="Ellipse_683-2" data-name="Ellipse 683" cx="5.146" cy="5.146" rx="5.146" ry="5.146" transform="translate(163.828 0)" fill="#fff"/>
        <ellipse id="Ellipse_673-2" data-name="Ellipse 673" cx="5.146" cy="5.146" rx="5.146" ry="5.146" transform="translate(218.994 93.416)" fill="#fff"/>
        <ellipse id="Ellipse_691" data-name="Ellipse 691" cx="5.146" cy="5.146" rx="5.146" ry="5.146" transform="translate(218.994 156.192)" fill="#fff"/>
        <ellipse id="Ellipse_698" data-name="Ellipse 698" cx="5.146" cy="5.146" rx="5.146" ry="5.146" transform="translate(218.994 220.131)" fill="#fff"/>
        <ellipse id="Ellipse_705-2" data-name="Ellipse 705" cx="5.146" cy="5.146" rx="5.146" ry="5.146" transform="translate(218.994 283.936)" fill="#fff"/>
        <ellipse id="Ellipse_711-2" data-name="Ellipse 711" cx="5.146" cy="5.146" rx="5.146" ry="5.146" transform="translate(218.994 347.741)" fill="#fff"/>
        <ellipse id="Ellipse_684-2" data-name="Ellipse 684" cx="5.146" cy="5.146" rx="5.146" ry="5.146" transform="translate(273.537 125.452)" fill="#fff"/>
        <ellipse id="Ellipse_689-2" data-name="Ellipse 689" cx="5.146" cy="5.146" rx="5.146" ry="5.146" transform="translate(273.537 188.228)" fill="#fff"/>
        <ellipse id="Ellipse_696-2" data-name="Ellipse 696" cx="5.146" cy="5.146" rx="5.146" ry="5.146" transform="translate(273.537 251.004)" fill="#fff"/>
        <ellipse id="Ellipse_703-2" data-name="Ellipse 703" cx="5.146" cy="5.146" rx="5.146" ry="5.146" transform="translate(273.537 314.81)" fill="#fff"/>
        <ellipse id="Ellipse_678-2" data-name="Ellipse 678" cx="5.146" cy="5.146" rx="5.146" ry="5.146" transform="translate(273.537 62.676)" fill="#fff"/>
        <ellipse id="Ellipse_681-2" data-name="Ellipse 681" cx="5.146" cy="5.146" rx="5.146" ry="5.146" transform="translate(218.994 30.873)" fill="#fff"/>
        <ellipse id="Ellipse_674-2" data-name="Ellipse 674" cx="5.146" cy="5.146" rx="5.146" ry="5.146" transform="translate(327.051 93.416)" fill="#fff"/>
        <ellipse id="Ellipse_688-2" data-name="Ellipse 688" cx="5.146" cy="5.146" rx="5.146" ry="5.146" transform="translate(327.051 156.192)" fill="#fff"/>
        <ellipse id="Ellipse_695-2" data-name="Ellipse 695" cx="5.146" cy="5.146" rx="5.146" ry="5.146" transform="translate(327.051 220.131)" fill="#fff"/>
        <ellipse id="Ellipse_702-2" data-name="Ellipse 702" cx="5.146" cy="5.146" rx="5.146" ry="5.146" transform="translate(327.051 282.086)" fill="#fff"/>
        <ellipse id="Ellipse_675-2" data-name="Ellipse 675" cx="5.146" cy="5.146" rx="5.146" ry="5.146" transform="translate(0 93.416)" fill="#fff"/>
        <ellipse id="Ellipse_694-2" data-name="Ellipse 694" cx="5.146" cy="5.146" rx="5.146" ry="5.146" transform="translate(0 156.192)" fill="#fff"/>
        <ellipse id="Ellipse_701-2" data-name="Ellipse 701" cx="5.146" cy="5.146" rx="5.146" ry="5.146" transform="translate(0 219.206)" fill="#fff"/>
        <ellipse id="Ellipse_708-2" data-name="Ellipse 708" cx="5.146" cy="5.146" rx="5.146" ry="5.146" transform="translate(0.821 282.086)" fill="#fff"/>
        <ellipse id="Ellipse_687-2" data-name="Ellipse 687" cx="5.146" cy="5.146" rx="5.146" ry="5.146" transform="translate(56.393 125.452)" fill="#fff"/>
        <ellipse id="Ellipse_693-2" data-name="Ellipse 693" cx="5.146" cy="5.146" rx="5.146" ry="5.146" transform="translate(55.365 188.228)" fill="#fff"/>
        <ellipse id="Ellipse_700-2" data-name="Ellipse 700" cx="5.146" cy="5.146" rx="5.146" ry="5.146" transform="translate(55.365 251.004)" fill="#fff"/>
        <ellipse id="Ellipse_707-2" data-name="Ellipse 707" cx="5.146" cy="5.146" rx="5.146" ry="5.146" transform="translate(56.393 314.81)" fill="#fff"/>
        <ellipse id="Ellipse_676-2" data-name="Ellipse 676" cx="5.146" cy="5.146" rx="5.146" ry="5.146" transform="translate(54.435 61.747)" fill="#fff"/>
      </g>
    </g>
  </g>
</svg>
