<svg xmlns="http://www.w3.org/2000/svg" xmlns:xlink="http://www.w3.org/1999/xlink" width="166.802" height="146.15" viewBox="0 0 166.802 146.15">
  <defs>
    <filter id="Logo-Clarion-Black" x="0" y="0" width="166.802" height="146.15" filterUnits="userSpaceOnUse">
      <feOffset input="SourceAlpha"/>
      <feGaussianBlur stdDeviation="2.5" result="blur"/>
      <feFlood flood-opacity="0.129"/>
      <feComposite operator="in" in2="blur"/>
      <feComposite in="SourceGraphic"/>
    </filter>
  </defs>
  <g transform="matrix(1, 0, 0, 1, 0, 0)" filter="url(#Logo-Clarion-Black)">
    <path id="Logo-Clarion-Black-2" data-name="Logo-Clarion-Black" d="M-6786.762,361.015c-23.555-12.382-20.97-34.186-16.582-45.453,0,0,.011-.007.014,0l7.541,6.884,0,0c-.012.082-1.59,12.737,13.5,20.666,15.135,7.957,27.229-2.609,29.563-5.755a37.433,37.433,0,0,0,7.073-20.92s8.914,1.134,20.376,9.458a43.249,43.249,0,0,1,15.079,19.619,52.547,52.547,0,0,0-15.093,3.549c-10.549,4.372-27.037,16.086-44.6,16.087A35.662,35.662,0,0,1-6786.762,361.015Zm-75.238-2.26a41.37,41.37,0,0,0,4.169-13.677c1.47-13.83-4.023-42.15,19.367-54.446,23.556-12.383,43,.558,51.523,9.651a.008.008,0,0,1-.006.012l-10.317,2.505h0c-.074-.049-11.319-7.621-26.405.309-15.136,7.957-11.133,22.777-9.306,26.191,3.446,6.443,9.146,11.894,16.359,16.038,0,0-5.534,6.46-19.185,11.338A51.4,51.4,0,0,1-6853,359.554,45.55,45.55,0,0,1-6862,358.755Zm79.81-36.341,2.776-9.389v0c.083-.033,12.908-5.115,12.908-20.975,0-15.913-16.1-20.167-20.257-20.434a47.378,47.378,0,0,0-23.429,4.88h-.006c-.033-.076-3.364-7.66-1.191-20.795a42.17,42.17,0,0,1,11.121-21.7,46.279,46.279,0,0,0,10.922,10.127c12.422,8.072,42.1,17.9,42.1,42.495,0,24.765-22.031,33.627-34.942,35.8h0A.007.007,0,0,1-6782.19,322.414Z" transform="translate(6869.5 -226.5)" fill="#262626"/>
  </g>
</svg>
