<svg xmlns="http://www.w3.org/2000/svg" width="297.187" height="316.955" viewBox="0 0 297.187 316.955">
  <path id="Sheild" d="M130.328-225.552,11.454-275.083a29.69,29.69,0,0,0-11.4-2.263,29.891,29.891,0,0,0-11.443,2.263l-118.875,49.531a29.686,29.686,0,0,0-18.326,27.428c0,122.9,70.891,207.845,137.139,235.458a29.81,29.81,0,0,0,22.846,0c53.06-22.1,137.2-98.443,137.2-235.458A29.725,29.725,0,0,0,130.328-225.552ZM3.838,19.069a10.125,10.125,0,0,1-7.615,0c-60.614-24.022-125-108.225-125-217.194a9.951,9.951,0,0,1,6.067-9.163L-3.839-256.819a9.841,9.841,0,0,1,7.615,0l118.875,49.531a9.855,9.855,0,0,1,6.068,9.163C128.781-89.156,64.39-4.953,3.838,19.069Z" transform="translate(148.594 277.346)" fill="#707070"/>
</svg>
